<?xml version="1.0" encoding="UTF-8" standalone="no"?>
<svg width="256.6mm" height="180.4mm"
 viewBox="0 0 5132 3608"
 xmlns="http://www.w3.org/2000/svg" xmlns:xlink="http://www.w3.org/1999/xlink"  version="1.2" baseProfile="tiny">
<title>Proteus Design Suite SVG export</title>
<desc>Created by Proteus Design Suite</desc>
<defs>
</defs>
<g fill="none" stroke="black" stroke-width="1" fill-rule="evenodd" stroke-linecap="square" stroke-linejoin="bevel" >

<g fill="#e0e0d0" fill-opacity="1" stroke="none" transform="matrix(1,0,0,1,0,0)"
font-family="MS Shell Dlg 2" font-size="52.9167" font-weight="400" font-style="normal" 
>
<path vector-effect="non-scaling-stroke" fill-rule="evenodd" d="M0,0 L5132,0 L5132,3608 L0,3608 L0,0"/>
</g>

<g fill="none" stroke="#004000" stroke-opacity="1" stroke-width="8" stroke-linecap="round" stroke-linejoin="bevel" transform="matrix(1,0,0,1,0,0)"
font-family="MS Shell Dlg 2" font-size="52.9167" font-weight="400" font-style="normal" 
>
<path vector-effect="none" fill-rule="evenodd" d="M2160,1601 L1398,1601 L1398,1804"/>
</g>

<g fill="none" stroke="#004000" stroke-opacity="1" stroke-width="8" stroke-linecap="round" stroke-linejoin="bevel" transform="matrix(1,0,0,1,0,0)"
font-family="MS Shell Dlg 2" font-size="52.9167" font-weight="400" font-style="normal" 
>
<path vector-effect="none" fill-rule="evenodd" d="M2160,2109 L1398,2109 L1398,1804"/>
</g>

<g fill="none" stroke="#004000" stroke-opacity="1" stroke-width="8" stroke-linecap="round" stroke-linejoin="bevel" transform="matrix(1,0,0,1,0,0)"
font-family="MS Shell Dlg 2" font-size="52.9167" font-weight="400" font-style="normal" 
>
<path vector-effect="none" fill-rule="evenodd" d="M2160,1702 L1906,1702 L1906,2210"/>
</g>

<g fill="none" stroke="#004000" stroke-opacity="1" stroke-width="8" stroke-linecap="round" stroke-linejoin="bevel" transform="matrix(1,0,0,1,0,0)"
font-family="MS Shell Dlg 2" font-size="52.9167" font-weight="400" font-style="normal" 
>
<path vector-effect="none" fill-rule="evenodd" d="M2160,2210 L1906,2210"/>
</g>

<g fill="none" stroke="#004000" stroke-opacity="1" stroke-width="8" stroke-linecap="round" stroke-linejoin="bevel" transform="matrix(1,0,0,1,0,0)"
font-family="MS Shell Dlg 2" font-size="52.9167" font-weight="400" font-style="normal" 
>
<path vector-effect="none" fill-rule="evenodd" d="M1906,2414 L1906,2312"/>
</g>

<g fill="none" stroke="#004000" stroke-opacity="1" stroke-width="8" stroke-linecap="round" stroke-linejoin="bevel" transform="matrix(1,0,0,1,0,0)"
font-family="MS Shell Dlg 2" font-size="52.9167" font-weight="400" font-style="normal" 
>
<path vector-effect="none" fill-rule="evenodd" d="M1906,2210 L1906,2312"/>
</g>

<g fill="none" stroke="#004000" stroke-opacity="1" stroke-width="8" stroke-linecap="round" stroke-linejoin="bevel" transform="matrix(1,0,0,1,0,0)"
font-family="MS Shell Dlg 2" font-size="52.9167" font-weight="400" font-style="normal" 
>
<path vector-effect="none" fill-rule="evenodd" d="M1398,1804 L1144,1804"/>
</g>

<g fill="none" stroke="#004000" stroke-opacity="1" stroke-width="8" stroke-linecap="round" stroke-linejoin="bevel" transform="matrix(1,0,0,1,0,0)"
font-family="MS Shell Dlg 2" font-size="52.9167" font-weight="400" font-style="normal" 
>
<path vector-effect="none" fill-rule="evenodd" d="M1042,1652 L1042,1296"/>
</g>

<g fill="none" stroke="#004000" stroke-opacity="1" stroke-width="8" stroke-linecap="round" stroke-linejoin="bevel" transform="matrix(1,0,0,1,0,0)"
font-family="MS Shell Dlg 2" font-size="52.9167" font-weight="400" font-style="normal" 
>
<path vector-effect="none" fill-rule="evenodd" d="M1702,991 L1702,1296 L1042,1296"/>
</g>

<g fill="none" stroke="#004000" stroke-opacity="1" stroke-width="8" stroke-linecap="round" stroke-linejoin="bevel" transform="matrix(1,0,0,1,0,0)"
font-family="MS Shell Dlg 2" font-size="52.9167" font-weight="400" font-style="normal" 
>
<path vector-effect="none" fill-rule="evenodd" d="M788,991 L534,991 L534,788"/>
</g>

<g fill="none" stroke="#004000" stroke-opacity="1" stroke-width="8" stroke-linecap="round" stroke-linejoin="bevel" transform="matrix(1,0,0,1,0,0)"
font-family="MS Shell Dlg 2" font-size="52.9167" font-weight="400" font-style="normal" 
>
<path vector-effect="none" fill-rule="evenodd" d="M1042,991 L1042,1296"/>
</g>

<g fill="none" stroke="#004000" stroke-opacity="1" stroke-width="8" stroke-linecap="round" stroke-linejoin="bevel" transform="matrix(1,0,0,1,0,0)"
font-family="MS Shell Dlg 2" font-size="52.9167" font-weight="400" font-style="normal" 
>
<path vector-effect="none" fill-rule="evenodd" d="M1906,2312 L1753,2312"/>
</g>

<g fill="none" stroke="#004000" stroke-opacity="1" stroke-width="8" stroke-linecap="round" stroke-linejoin="bevel" transform="matrix(1,0,0,1,0,0)"
font-family="MS Shell Dlg 2" font-size="52.9167" font-weight="400" font-style="normal" 
>
<path vector-effect="none" fill-rule="evenodd" d="M1753,2312 L1042,2312 L1042,1956"/>
</g>

<g fill="none" stroke="#004000" stroke-opacity="1" stroke-width="8" stroke-linecap="round" stroke-linejoin="bevel" transform="matrix(1,0,0,1,0,0)"
font-family="MS Shell Dlg 2" font-size="52.9167" font-weight="400" font-style="normal" 
>
<path vector-effect="none" fill-rule="evenodd" d="M2414,1144 L1753,1144 L1753,2312"/>
</g>

<g fill="none" stroke="#004000" stroke-opacity="1" stroke-width="8" stroke-linecap="round" stroke-linejoin="bevel" transform="matrix(1,0,0,1,0,0)"
font-family="MS Shell Dlg 2" font-size="52.9167" font-weight="400" font-style="normal" 
>
<path vector-effect="none" fill-rule="evenodd" d="M2414,991 L1956,991"/>
</g>

<g fill="none" stroke="#004000" stroke-opacity="1" stroke-width="8" stroke-linecap="round" stroke-linejoin="bevel" transform="matrix(1,0,0,1,0,0)"
font-family="MS Shell Dlg 2" font-size="52.9167" font-weight="400" font-style="normal" 
>
<path vector-effect="none" fill-rule="evenodd" d="M1042,991"/>
</g>

<g fill="none" stroke="#004000" stroke-opacity="1" stroke-width="8" stroke-linecap="round" stroke-linejoin="bevel" transform="matrix(1,0,0,1,0,0)"
font-family="MS Shell Dlg 2" font-size="52.9167" font-weight="400" font-style="normal" 
>
<path vector-effect="none" fill-rule="evenodd" d="M2414,839 L1042,839 L1042,991"/>
</g>

<g fill="none" stroke="#004000" stroke-opacity="1" stroke-width="8" stroke-linecap="round" stroke-linejoin="bevel" transform="matrix(1,0,0,1,0,0)"
font-family="MS Shell Dlg 2" font-size="52.9167" font-weight="400" font-style="normal" 
>
<path vector-effect="none" fill-rule="evenodd" d="M3887,2058 L3887,1245"/>
</g>

<g fill="none" stroke="#000000" stroke-opacity="1" stroke-width="1" stroke-linecap="square" stroke-linejoin="bevel" transform="matrix(0,-1,1,0,1868,5882)"
font-family="Arial" font-size="41.656" font-weight="400" font-style="normal" 
>
<text fill="#000000" fill-opacity="1" stroke="none" xml:space="preserve" x="3875" y="2007" font-family="Arial" font-size="41.656" font-weight="400" font-style="normal" 
 >+ve</text>
</g>

<g fill="none" stroke="#004000" stroke-opacity="1" stroke-width="8" stroke-linecap="round" stroke-linejoin="bevel" transform="matrix(1,0,0,1,0,0)"
font-family="MS Shell Dlg 2" font-size="52.9167" font-weight="400" font-style="normal" 
>
</g>

<g fill="none" stroke="#004000" stroke-opacity="1" stroke-width="8" stroke-linecap="round" stroke-linejoin="bevel" transform="matrix(1,0,0,1,0,0)"
font-family="MS Shell Dlg 2" font-size="52.9167" font-weight="400" font-style="normal" 
>
<path vector-effect="none" fill-rule="evenodd" d="M3988,2058 L3988,1245"/>
</g>

<g fill="none" stroke="#000000" stroke-opacity="1" stroke-width="1" stroke-linecap="square" stroke-linejoin="bevel" transform="matrix(0,-1,1,0,2121,5831)"
font-family="Arial" font-size="41.656" font-weight="400" font-style="normal" 
>
<text fill="#000000" fill-opacity="1" stroke="none" xml:space="preserve" x="3976" y="1855" font-family="Arial" font-size="41.656" font-weight="400" font-style="normal" 
 >-ve</text>
</g>

<g fill="none" stroke="#004000" stroke-opacity="1" stroke-width="8" stroke-linecap="round" stroke-linejoin="bevel" transform="matrix(1,0,0,1,0,0)"
font-family="MS Shell Dlg 2" font-size="52.9167" font-weight="400" font-style="normal" 
>
</g>

<g fill="#c8c8aa" fill-opacity="1" stroke="#800000" stroke-opacity="1" stroke-width="8" stroke-linecap="round" stroke-linejoin="bevel" transform="matrix(1,0,0,1,0,0)"
font-family="MS Shell Dlg 2" font-size="52.9167" font-weight="400" font-style="normal" 
>
<path vector-effect="none" fill-rule="evenodd" d="M2210,1575 L2236,1575 L2236,1728 L2210,1728 L2210,1575"/>
</g>

<g fill="none" stroke="#800000" stroke-opacity="1" stroke-width="8" stroke-linecap="round" stroke-linejoin="bevel" transform="matrix(1,0,0,1,0,0)"
font-family="MS Shell Dlg 2" font-size="52.9167" font-weight="400" font-style="normal" 
>
<polyline fill="none" vector-effect="none" points="2236,1575 2261,1550 " />
</g>

<g fill="none" stroke="#800000" stroke-opacity="1" stroke-width="8" stroke-linecap="round" stroke-linejoin="bevel" transform="matrix(1,0,0,1,0,0)"
font-family="MS Shell Dlg 2" font-size="52.9167" font-weight="400" font-style="normal" 
>
<polyline fill="none" vector-effect="none" points="2236,1728 2261,1753 " />
</g>

<g fill="none" stroke="#800000" stroke-opacity="1" stroke-width="8" stroke-linecap="round" stroke-linejoin="bevel" transform="matrix(1,0,0,1,0,0)"
font-family="MS Shell Dlg 2" font-size="52.9167" font-weight="400" font-style="normal" 
>
<polyline fill="none" vector-effect="none" points="2261,1550 2261,1753 " />
</g>

<g fill="none" stroke="#800000" stroke-opacity="1" stroke-width="8" stroke-linecap="round" stroke-linejoin="bevel" transform="matrix(1,0,0,1,0,0)"
font-family="MS Shell Dlg 2" font-size="52.9167" font-weight="400" font-style="normal" 
>
<polyline fill="none" vector-effect="none" points="2160,1601 2210,1601 " />
</g>

<g fill="none" stroke="#800000" stroke-opacity="1" stroke-width="8" stroke-linecap="round" stroke-linejoin="bevel" transform="matrix(1,0,0,1,0,0)"
font-family="MS Shell Dlg 2" font-size="52.9167" font-weight="400" font-style="normal" 
>
<polyline fill="none" vector-effect="none" points="2160,1702 2210,1702 " />
</g>

<g fill="none" stroke="#000000" stroke-opacity="1" stroke-width="1" stroke-linecap="square" stroke-linejoin="bevel" transform="matrix(1,0,0,1,0,0)"
font-family="Arial" font-size="62.484" font-weight="400" font-style="normal" 
>
<text fill="#000000" fill-opacity="1" stroke="none" xml:space="preserve" x="2206" y="1534" font-family="Arial" font-size="62.484" font-weight="400" font-style="normal" 
 >LS1</text>
</g>

<g fill="none" stroke="#800000" stroke-opacity="1" stroke-width="8" stroke-linecap="round" stroke-linejoin="bevel" transform="matrix(1,0,0,1,0,0)"
font-family="MS Shell Dlg 2" font-size="52.9167" font-weight="400" font-style="normal" 
>
</g>

<g fill="none" stroke="#000000" stroke-opacity="1" stroke-width="1" stroke-linecap="square" stroke-linejoin="bevel" transform="matrix(1,0,0,1,0,0)"
font-family="Arial" font-size="41.656" font-weight="400" font-style="normal" 
>
<text fill="#000000" fill-opacity="1" stroke="none" xml:space="preserve" x="2206" y="1797" font-family="Arial" font-size="41.656" font-weight="400" font-style="normal" 
 >SPEAKER</text>
</g>

<g fill="none" stroke="#800000" stroke-opacity="1" stroke-width="8" stroke-linecap="round" stroke-linejoin="bevel" transform="matrix(1,0,0,1,0,0)"
font-family="MS Shell Dlg 2" font-size="52.9167" font-weight="400" font-style="normal" 
>
</g>

<g fill="#c8c8aa" fill-opacity="1" stroke="#800000" stroke-opacity="1" stroke-width="8" stroke-linecap="round" stroke-linejoin="bevel" transform="matrix(1,0,0,1,0,0)"
font-family="MS Shell Dlg 2" font-size="52.9167" font-weight="400" font-style="normal" 
>
<path vector-effect="none" fill-rule="evenodd" d="M2210,2083 L2236,2083 L2236,2236 L2210,2236 L2210,2083"/>
</g>

<g fill="none" stroke="#800000" stroke-opacity="1" stroke-width="8" stroke-linecap="round" stroke-linejoin="bevel" transform="matrix(1,0,0,1,0,0)"
font-family="MS Shell Dlg 2" font-size="52.9167" font-weight="400" font-style="normal" 
>
<polyline fill="none" vector-effect="none" points="2236,2083 2261,2058 " />
</g>

<g fill="none" stroke="#800000" stroke-opacity="1" stroke-width="8" stroke-linecap="round" stroke-linejoin="bevel" transform="matrix(1,0,0,1,0,0)"
font-family="MS Shell Dlg 2" font-size="52.9167" font-weight="400" font-style="normal" 
>
<polyline fill="none" vector-effect="none" points="2236,2236 2261,2261 " />
</g>

<g fill="none" stroke="#800000" stroke-opacity="1" stroke-width="8" stroke-linecap="round" stroke-linejoin="bevel" transform="matrix(1,0,0,1,0,0)"
font-family="MS Shell Dlg 2" font-size="52.9167" font-weight="400" font-style="normal" 
>
<polyline fill="none" vector-effect="none" points="2261,2058 2261,2261 " />
</g>

<g fill="none" stroke="#800000" stroke-opacity="1" stroke-width="8" stroke-linecap="round" stroke-linejoin="bevel" transform="matrix(1,0,0,1,0,0)"
font-family="MS Shell Dlg 2" font-size="52.9167" font-weight="400" font-style="normal" 
>
<polyline fill="none" vector-effect="none" points="2160,2109 2210,2109 " />
</g>

<g fill="none" stroke="#800000" stroke-opacity="1" stroke-width="8" stroke-linecap="round" stroke-linejoin="bevel" transform="matrix(1,0,0,1,0,0)"
font-family="MS Shell Dlg 2" font-size="52.9167" font-weight="400" font-style="normal" 
>
<polyline fill="none" vector-effect="none" points="2160,2210 2210,2210 " />
</g>

<g fill="none" stroke="#000000" stroke-opacity="1" stroke-width="1" stroke-linecap="square" stroke-linejoin="bevel" transform="matrix(1,0,0,1,0,0)"
font-family="Arial" font-size="62.484" font-weight="400" font-style="normal" 
>
<text fill="#000000" fill-opacity="1" stroke="none" xml:space="preserve" x="2206" y="2042" font-family="Arial" font-size="62.484" font-weight="400" font-style="normal" 
 >LS2</text>
</g>

<g fill="none" stroke="#800000" stroke-opacity="1" stroke-width="8" stroke-linecap="round" stroke-linejoin="bevel" transform="matrix(1,0,0,1,0,0)"
font-family="MS Shell Dlg 2" font-size="52.9167" font-weight="400" font-style="normal" 
>
</g>

<g fill="none" stroke="#000000" stroke-opacity="1" stroke-width="1" stroke-linecap="square" stroke-linejoin="bevel" transform="matrix(1,0,0,1,0,0)"
font-family="Arial" font-size="41.656" font-weight="400" font-style="normal" 
>
<text fill="#000000" fill-opacity="1" stroke="none" xml:space="preserve" x="2206" y="2305" font-family="Arial" font-size="41.656" font-weight="400" font-style="normal" 
 >SPEAKER</text>
</g>

<g fill="none" stroke="#800000" stroke-opacity="1" stroke-width="8" stroke-linecap="round" stroke-linejoin="bevel" transform="matrix(1,0,0,1,0,0)"
font-family="MS Shell Dlg 2" font-size="52.9167" font-weight="400" font-style="normal" 
>
</g>

<g fill="#004000" fill-opacity="1" stroke="#004000" stroke-opacity="1" stroke-width="8" stroke-linecap="round" stroke-linejoin="bevel" transform="matrix(1,0,0,1,0,0)"
font-family="MS Shell Dlg 2" font-size="52.9167" font-weight="400" font-style="normal" 
>
<path vector-effect="none" fill-rule="evenodd" d="M1408,1804 C1408,1809.52 1403.52,1814 1398,1814 C1392.48,1814 1388,1809.52 1388,1804 C1388,1798.48 1392.48,1794 1398,1794 C1403.52,1794 1408,1798.48 1408,1804 "/>
</g>

<g fill="none" stroke="#004000" stroke-opacity="1" stroke-width="8" stroke-linecap="round" stroke-linejoin="bevel" transform="matrix(1,0,0,1,0,0)"
font-family="MS Shell Dlg 2" font-size="52.9167" font-weight="400" font-style="normal" 
>
<polyline fill="none" vector-effect="none" points="1906,2414 1906,2464 " />
</g>

<g fill="none" stroke="#004000" stroke-opacity="1" stroke-width="8" stroke-linecap="round" stroke-linejoin="bevel" transform="matrix(1,0,0,1,0,0)"
font-family="MS Shell Dlg 2" font-size="52.9167" font-weight="400" font-style="normal" 
>
<polyline fill="none" vector-effect="none" points="1855,2464 1956,2464 " />
</g>

<g fill="none" stroke="#004000" stroke-opacity="1" stroke-width="8" stroke-linecap="round" stroke-linejoin="bevel" transform="matrix(1,0,0,1,0,0)"
font-family="MS Shell Dlg 2" font-size="52.9167" font-weight="400" font-style="normal" 
>
<polyline fill="none" vector-effect="none" points="1880,2490 1931,2490 " />
</g>

<g fill="none" stroke="#004000" stroke-opacity="1" stroke-width="8" stroke-linecap="round" stroke-linejoin="bevel" transform="matrix(1,0,0,1,0,0)"
font-family="MS Shell Dlg 2" font-size="52.9167" font-weight="400" font-style="normal" 
>
<polyline fill="none" vector-effect="none" points="1901,2515 1911,2515 " />
</g>

<g fill="#004000" fill-opacity="1" stroke="#004000" stroke-opacity="1" stroke-width="8" stroke-linecap="round" stroke-linejoin="bevel" transform="matrix(1,0,0,1,0,0)"
font-family="MS Shell Dlg 2" font-size="52.9167" font-weight="400" font-style="normal" 
>
<path vector-effect="none" fill-rule="evenodd" d="M1916,2210 C1916,2215.52 1911.52,2220 1906,2220 C1900.48,2220 1896,2215.52 1896,2210 C1896,2204.48 1900.48,2200 1906,2200 C1911.52,2200 1916,2204.48 1916,2210 "/>
</g>

<g fill="#004000" fill-opacity="1" stroke="#004000" stroke-opacity="1" stroke-width="8" stroke-linecap="round" stroke-linejoin="bevel" transform="matrix(1,0,0,1,0,0)"
font-family="MS Shell Dlg 2" font-size="52.9167" font-weight="400" font-style="normal" 
>
<path vector-effect="none" fill-rule="evenodd" d="M1916,2312 C1916,2317.52 1911.52,2322 1906,2322 C1900.48,2322 1896,2317.52 1896,2312 C1896,2306.48 1900.48,2302 1906,2302 C1911.52,2302 1916,2306.48 1916,2312 "/>
</g>

<g fill="#c8c8aa" fill-opacity="1" stroke="#800000" stroke-opacity="1" stroke-width="8" stroke-linecap="round" stroke-linejoin="bevel" transform="matrix(1,0,0,1,0,0)"
font-family="MS Shell Dlg 2" font-size="52.9167" font-weight="400" font-style="normal" 
>
<path vector-effect="none" fill-rule="evenodd" d="M1022,1728 L1062,1728 L1062,1880 L1022,1880 L1022,1728"/>
</g>

<g fill="none" stroke="#800000" stroke-opacity="1" stroke-width="8" stroke-linecap="round" stroke-linejoin="bevel" transform="matrix(1,0,0,1,0,0)"
font-family="MS Shell Dlg 2" font-size="52.9167" font-weight="400" font-style="normal" 
>
<polyline fill="none" vector-effect="none" points="1042,1702 1042,1728 " />
</g>

<g fill="none" stroke="#800000" stroke-opacity="1" stroke-width="8" stroke-linecap="round" stroke-linejoin="bevel" transform="matrix(1,0,0,1,0,0)"
font-family="MS Shell Dlg 2" font-size="52.9167" font-weight="400" font-style="normal" 
>
<polyline fill="none" vector-effect="none" points="1042,1880 1042,1906 " />
</g>

<g fill="none" stroke="#800000" stroke-opacity="1" stroke-width="8" stroke-linecap="round" stroke-linejoin="bevel" transform="matrix(1,0,0,1,0,0)"
font-family="MS Shell Dlg 2" font-size="52.9167" font-weight="400" font-style="normal" 
>
<polyline fill="none" vector-effect="none" points="1067,1789 1083,1779 " />
</g>

<g fill="none" stroke="#800000" stroke-opacity="1" stroke-width="8" stroke-linecap="round" stroke-linejoin="bevel" transform="matrix(1,0,0,1,0,0)"
font-family="MS Shell Dlg 2" font-size="52.9167" font-weight="400" font-style="normal" 
>
<polyline fill="none" vector-effect="none" points="1067,1789 1083,1799 " />
</g>

<g fill="none" stroke="#800000" stroke-opacity="1" stroke-width="8" stroke-linecap="round" stroke-linejoin="bevel" transform="matrix(1,0,0,1,0,0)"
font-family="MS Shell Dlg 2" font-size="52.9167" font-weight="400" font-style="normal" 
>
<polyline fill="none" vector-effect="none" points="1067,1789 1093,1789 " />
</g>

<g fill="none" stroke="#800000" stroke-opacity="1" stroke-width="8" stroke-linecap="round" stroke-linejoin="bevel" transform="matrix(1,0,0,1,0,0)"
font-family="MS Shell Dlg 2" font-size="52.9167" font-weight="400" font-style="normal" 
>
<polyline fill="none" vector-effect="none" points="1093,1789 1093,1804 " />
</g>

<g fill="none" stroke="#c00000" stroke-opacity="1" stroke-width="1" stroke-linecap="square" stroke-linejoin="bevel" transform="matrix(0,-1,1,0,-779,2887)"
font-family="Arial" font-size="29.1592" font-weight="400" font-style="normal" 
>
<text fill="#c00000" fill-opacity="1" stroke="none" xml:space="preserve" x="1054" y="1833" font-family="Arial" font-size="29.1592" font-weight="400" font-style="normal" 
 >62%</text>
</g>

<g fill="none" stroke="#800000" stroke-opacity="1" stroke-width="8" stroke-linecap="round" stroke-linejoin="bevel" transform="matrix(1,0,0,1,0,0)"
font-family="MS Shell Dlg 2" font-size="52.9167" font-weight="400" font-style="normal" 
>
</g>

<g fill="none" stroke="#800000" stroke-opacity="1" stroke-width="8" stroke-linecap="round" stroke-linejoin="bevel" transform="matrix(1,0,0,1,0,0)"
font-family="MS Shell Dlg 2" font-size="52.9167" font-weight="400" font-style="normal" 
>
<polyline fill="none" vector-effect="none" points="1042,1956 1042,1906 " />
</g>

<g fill="none" stroke="#800000" stroke-opacity="1" stroke-width="8" stroke-linecap="round" stroke-linejoin="bevel" transform="matrix(1,0,0,1,0,0)"
font-family="MS Shell Dlg 2" font-size="52.9167" font-weight="400" font-style="normal" 
>
<polyline fill="none" vector-effect="none" points="1042,1652 1042,1702 " />
</g>

<g fill="none" stroke="#800000" stroke-opacity="1" stroke-width="8" stroke-linecap="round" stroke-linejoin="bevel" transform="matrix(1,0,0,1,0,0)"
font-family="MS Shell Dlg 2" font-size="52.9167" font-weight="400" font-style="normal" 
>
<polyline fill="none" vector-effect="none" points="1144,1804 1093,1804 " />
</g>

<g fill="#400000" fill-opacity="1" stroke="#ff0000" stroke-opacity="1" stroke-width="4" stroke-linecap="round" stroke-linejoin="bevel" transform="matrix(1,0,0,1,0,0)"
font-family="MS Shell Dlg 2" font-size="52.9167" font-weight="400" font-style="normal" 
>
<path vector-effect="none" fill-rule="evenodd" d="M1001,1748 C1001,1759.05 992.046,1768 981,1768 C969.954,1768 961,1759.05 961,1748 C961,1736.95 969.954,1728 981,1728 C992.046,1728 1001,1736.95 1001,1748 "/>
</g>

<g fill="none" stroke="#ff0000" stroke-opacity="1" stroke-width="4" stroke-linecap="round" stroke-linejoin="bevel" transform="matrix(1,0,0,1,0,0)"
font-family="MS Shell Dlg 2" font-size="52.9167" font-weight="400" font-style="normal" 
>
<polyline fill="none" vector-effect="none" points="981,1738 976,1743 " />
</g>

<g fill="none" stroke="#ff0000" stroke-opacity="1" stroke-width="4" stroke-linecap="round" stroke-linejoin="bevel" transform="matrix(1,0,0,1,0,0)"
font-family="MS Shell Dlg 2" font-size="52.9167" font-weight="400" font-style="normal" 
>
<polyline fill="none" vector-effect="none" points="981,1738 986,1743 " />
</g>

<g fill="none" stroke="#ff0000" stroke-opacity="1" stroke-width="4" stroke-linecap="round" stroke-linejoin="bevel" transform="matrix(1,0,0,1,0,0)"
font-family="MS Shell Dlg 2" font-size="52.9167" font-weight="400" font-style="normal" 
>
<polyline fill="none" vector-effect="none" points="981,1738 981,1758 " />
</g>

<g fill="#400000" fill-opacity="1" stroke="#ff0000" stroke-opacity="1" stroke-width="4" stroke-linecap="round" stroke-linejoin="bevel" transform="matrix(1,0,0,1,0,0)"
font-family="MS Shell Dlg 2" font-size="52.9167" font-weight="400" font-style="normal" 
>
<path vector-effect="none" fill-rule="evenodd" d="M1001,1860 C1001,1871.05 992.046,1880 981,1880 C969.954,1880 961,1871.05 961,1860 C961,1848.95 969.954,1840 981,1840 C992.046,1840 1001,1848.95 1001,1860 "/>
</g>

<g fill="none" stroke="#ff0000" stroke-opacity="1" stroke-width="4" stroke-linecap="round" stroke-linejoin="bevel" transform="matrix(1,0,0,1,0,0)"
font-family="MS Shell Dlg 2" font-size="52.9167" font-weight="400" font-style="normal" 
>
<polyline fill="none" vector-effect="none" points="981,1870 976,1865 " />
</g>

<g fill="none" stroke="#ff0000" stroke-opacity="1" stroke-width="4" stroke-linecap="round" stroke-linejoin="bevel" transform="matrix(1,0,0,1,0,0)"
font-family="MS Shell Dlg 2" font-size="52.9167" font-weight="400" font-style="normal" 
>
<polyline fill="none" vector-effect="none" points="981,1870 986,1865 " />
</g>

<g fill="none" stroke="#ff0000" stroke-opacity="1" stroke-width="4" stroke-linecap="round" stroke-linejoin="bevel" transform="matrix(1,0,0,1,0,0)"
font-family="MS Shell Dlg 2" font-size="52.9167" font-weight="400" font-style="normal" 
>
<polyline fill="none" vector-effect="none" points="981,1870 981,1850 " />
</g>

<g fill="none" stroke="#000000" stroke-opacity="1" stroke-width="1" stroke-linecap="square" stroke-linejoin="bevel" transform="matrix(1,0,0,1,0,0)"
font-family="Arial" font-size="62.484" font-weight="400" font-style="normal" 
>
<text fill="#000000" fill-opacity="1" stroke="none" xml:space="preserve" x="1097" y="1636" font-family="Arial" font-size="62.484" font-weight="400" font-style="normal" 
 >VOLUME</text>
</g>

<g fill="none" stroke="#ff0000" stroke-opacity="1" stroke-width="4" stroke-linecap="round" stroke-linejoin="bevel" transform="matrix(1,0,0,1,0,0)"
font-family="MS Shell Dlg 2" font-size="52.9167" font-weight="400" font-style="normal" 
>
</g>

<g fill="none" stroke="#000000" stroke-opacity="1" stroke-width="1" stroke-linecap="square" stroke-linejoin="bevel" transform="matrix(1,0,0,1,0,0)"
font-family="Arial" font-size="41.656" font-weight="400" font-style="normal" 
>
<text fill="#000000" fill-opacity="1" stroke="none" xml:space="preserve" x="1097" y="2000" font-family="Arial" font-size="41.656" font-weight="400" font-style="normal" 
 >1k</text>
</g>

<g fill="none" stroke="#ff0000" stroke-opacity="1" stroke-width="4" stroke-linecap="round" stroke-linejoin="bevel" transform="matrix(1,0,0,1,0,0)"
font-family="MS Shell Dlg 2" font-size="52.9167" font-weight="400" font-style="normal" 
>
</g>

<g fill="#c8c8aa" fill-opacity="1" stroke="#800000" stroke-opacity="1" stroke-width="8" stroke-linecap="round" stroke-linejoin="bevel" transform="matrix(1,0,0,1,0,0)"
font-family="MS Shell Dlg 2" font-size="52.9167" font-weight="400" font-style="normal" 
>
<path vector-effect="none" fill-rule="evenodd" d="M986,991 C986,996.523 981.523,1001 976,1001 C970.477,1001 966,996.523 966,991 C966,985.477 970.477,981 976,981 C981.523,981 986,985.477 986,991 "/>
</g>

<g fill="#c8c8aa" fill-opacity="1" stroke="#800000" stroke-opacity="1" stroke-width="8" stroke-linecap="round" stroke-linejoin="bevel" transform="matrix(1,0,0,1,0,0)"
font-family="MS Shell Dlg 2" font-size="52.9167" font-weight="400" font-style="normal" 
>
<path vector-effect="none" fill-rule="evenodd" d="M864,991 C864,996.523 859.523,1001 854,1001 C848.477,1001 844,996.523 844,991 C844,985.477 848.477,981 854,981 C859.523,981 864,985.477 864,991 "/>
</g>

<g fill="none" stroke="#800000" stroke-opacity="1" stroke-width="8" stroke-linecap="round" stroke-linejoin="bevel" transform="matrix(1,0,0,1,0,0)"
font-family="MS Shell Dlg 2" font-size="52.9167" font-weight="400" font-style="normal" 
>
<polyline fill="none" vector-effect="none" points="839,991 844,991 " />
</g>

<g fill="none" stroke="#800000" stroke-opacity="1" stroke-width="8" stroke-linecap="round" stroke-linejoin="bevel" transform="matrix(1,0,0,1,0,0)"
font-family="MS Shell Dlg 2" font-size="52.9167" font-weight="400" font-style="normal" 
>
<polyline fill="none" vector-effect="none" points="986,991 991,991 " />
</g>

<g fill="none" stroke="#800000" stroke-opacity="1" stroke-width="8" stroke-linecap="round" stroke-linejoin="bevel" transform="matrix(1,0,0,1,0,0)"
font-family="MS Shell Dlg 2" font-size="52.9167" font-weight="400" font-style="normal" 
>
<polyline fill="none" vector-effect="none" points="864,986 961,925 " />
</g>

<g fill="none" stroke="#800000" stroke-opacity="1" stroke-width="8" stroke-linecap="round" stroke-linejoin="bevel" transform="matrix(1,0,0,1,0,0)"
font-family="MS Shell Dlg 2" font-size="52.9167" font-weight="400" font-style="normal" 
>
<polyline fill="none" vector-effect="none" points="788,991 839,991 " />
</g>

<g fill="none" stroke="#800000" stroke-opacity="1" stroke-width="8" stroke-linecap="round" stroke-linejoin="bevel" transform="matrix(1,0,0,1,0,0)"
font-family="MS Shell Dlg 2" font-size="52.9167" font-weight="400" font-style="normal" 
>
<polyline fill="none" vector-effect="none" points="1042,991 991,991 " />
</g>

<g fill="#400000" fill-opacity="1" stroke="#ff0000" stroke-opacity="1" stroke-width="4" stroke-linecap="round" stroke-linejoin="bevel" transform="matrix(1,0,0,1,0,0)"
font-family="MS Shell Dlg 2" font-size="52.9167" font-weight="400" font-style="normal" 
>
<path vector-effect="none" fill-rule="evenodd" d="M1011,940 C1011,951.046 1002.05,960 991,960 C979.954,960 971,951.046 971,940 C971,928.954 979.954,920 991,920 C1002.05,920 1011,928.954 1011,940 "/>
</g>

<g fill="none" stroke="#ff0000" stroke-opacity="1" stroke-width="4" stroke-linecap="round" stroke-linejoin="bevel" transform="matrix(1,0,0,1,0,0)"
font-family="MS Shell Dlg 2" font-size="52.9167" font-weight="400" font-style="normal" 
>
<polyline fill="none" vector-effect="none" points="991,951 986,945 " />
</g>

<g fill="none" stroke="#ff0000" stroke-opacity="1" stroke-width="4" stroke-linecap="round" stroke-linejoin="bevel" transform="matrix(1,0,0,1,0,0)"
font-family="MS Shell Dlg 2" font-size="52.9167" font-weight="400" font-style="normal" 
>
<polyline fill="none" vector-effect="none" points="991,951 996,945 " />
</g>

<g fill="none" stroke="#ff0000" stroke-opacity="1" stroke-width="4" stroke-linecap="round" stroke-linejoin="bevel" transform="matrix(1,0,0,1,0,0)"
font-family="MS Shell Dlg 2" font-size="52.9167" font-weight="400" font-style="normal" 
>
<polyline fill="none" vector-effect="none" points="991,951 991,930 " />
</g>

<g fill="#400000" fill-opacity="1" stroke="#ff0000" stroke-opacity="1" stroke-width="4" stroke-linecap="round" stroke-linejoin="bevel" transform="matrix(1,0,0,1,0,0)"
font-family="MS Shell Dlg 2" font-size="52.9167" font-weight="400" font-style="normal" 
>
<path vector-effect="none" fill-rule="evenodd" d="M1062,940 C1062,951.046 1053.05,960 1042,960 C1030.95,960 1022,951.046 1022,940 C1022,928.954 1030.95,920 1042,920 C1053.05,920 1062,928.954 1062,940 "/>
</g>

<g fill="none" stroke="#ff0000" stroke-opacity="1" stroke-width="4" stroke-linecap="round" stroke-linejoin="bevel" transform="matrix(1,0,0,1,0,0)"
font-family="MS Shell Dlg 2" font-size="52.9167" font-weight="400" font-style="normal" 
>
<polyline fill="none" vector-effect="none" points="1042,930 1037,935 " />
</g>

<g fill="none" stroke="#ff0000" stroke-opacity="1" stroke-width="4" stroke-linecap="round" stroke-linejoin="bevel" transform="matrix(1,0,0,1,0,0)"
font-family="MS Shell Dlg 2" font-size="52.9167" font-weight="400" font-style="normal" 
>
<polyline fill="none" vector-effect="none" points="1042,930 1047,935 " />
</g>

<g fill="none" stroke="#ff0000" stroke-opacity="1" stroke-width="4" stroke-linecap="round" stroke-linejoin="bevel" transform="matrix(1,0,0,1,0,0)"
font-family="MS Shell Dlg 2" font-size="52.9167" font-weight="400" font-style="normal" 
>
<polyline fill="none" vector-effect="none" points="1042,930 1042,951 " />
</g>

<g fill="#c8c8aa" fill-opacity="1" stroke="#800000" stroke-opacity="1" stroke-width="8" stroke-linecap="round" stroke-linejoin="bevel" transform="matrix(1,0,0,1,0,0)"
font-family="MS Shell Dlg 2" font-size="52.9167" font-weight="400" font-style="normal" 
>
<path vector-effect="none" fill-rule="evenodd" d="M1900,991 C1900,996.523 1895.52,1001 1890,1001 C1884.48,1001 1880,996.523 1880,991 C1880,985.477 1884.48,981 1890,981 C1895.52,981 1900,985.477 1900,991 "/>
</g>

<g fill="#c8c8aa" fill-opacity="1" stroke="#800000" stroke-opacity="1" stroke-width="8" stroke-linecap="round" stroke-linejoin="bevel" transform="matrix(1,0,0,1,0,0)"
font-family="MS Shell Dlg 2" font-size="52.9167" font-weight="400" font-style="normal" 
>
<path vector-effect="none" fill-rule="evenodd" d="M1778,991 C1778,996.523 1773.52,1001 1768,1001 C1762.48,1001 1758,996.523 1758,991 C1758,985.477 1762.48,981 1768,981 C1773.52,981 1778,985.477 1778,991 "/>
</g>

<g fill="none" stroke="#800000" stroke-opacity="1" stroke-width="8" stroke-linecap="round" stroke-linejoin="bevel" transform="matrix(1,0,0,1,0,0)"
font-family="MS Shell Dlg 2" font-size="52.9167" font-weight="400" font-style="normal" 
>
<polyline fill="none" vector-effect="none" points="1753,991 1758,991 " />
</g>

<g fill="none" stroke="#800000" stroke-opacity="1" stroke-width="8" stroke-linecap="round" stroke-linejoin="bevel" transform="matrix(1,0,0,1,0,0)"
font-family="MS Shell Dlg 2" font-size="52.9167" font-weight="400" font-style="normal" 
>
<polyline fill="none" vector-effect="none" points="1901,991 1906,991 " />
</g>

<g fill="none" stroke="#800000" stroke-opacity="1" stroke-width="8" stroke-linecap="round" stroke-linejoin="bevel" transform="matrix(1,0,0,1,0,0)"
font-family="MS Shell Dlg 2" font-size="52.9167" font-weight="400" font-style="normal" 
>
<polyline fill="none" vector-effect="none" points="1779,986 1875,925 " />
</g>

<g fill="none" stroke="#800000" stroke-opacity="1" stroke-width="8" stroke-linecap="round" stroke-linejoin="bevel" transform="matrix(1,0,0,1,0,0)"
font-family="MS Shell Dlg 2" font-size="52.9167" font-weight="400" font-style="normal" 
>
<polyline fill="none" vector-effect="none" points="1702,991 1753,991 " />
</g>

<g fill="none" stroke="#800000" stroke-opacity="1" stroke-width="8" stroke-linecap="round" stroke-linejoin="bevel" transform="matrix(1,0,0,1,0,0)"
font-family="MS Shell Dlg 2" font-size="52.9167" font-weight="400" font-style="normal" 
>
<polyline fill="none" vector-effect="none" points="1956,991 1906,991 " />
</g>

<g fill="#400000" fill-opacity="1" stroke="#ff0000" stroke-opacity="1" stroke-width="4" stroke-linecap="round" stroke-linejoin="bevel" transform="matrix(1,0,0,1,0,0)"
font-family="MS Shell Dlg 2" font-size="52.9167" font-weight="400" font-style="normal" 
>
<path vector-effect="none" fill-rule="evenodd" d="M1926,940 C1926,951.046 1917.05,960 1906,960 C1894.95,960 1886,951.046 1886,940 C1886,928.954 1894.95,920 1906,920 C1917.05,920 1926,928.954 1926,940 "/>
</g>

<g fill="none" stroke="#ff0000" stroke-opacity="1" stroke-width="4" stroke-linecap="round" stroke-linejoin="bevel" transform="matrix(1,0,0,1,0,0)"
font-family="MS Shell Dlg 2" font-size="52.9167" font-weight="400" font-style="normal" 
>
<polyline fill="none" vector-effect="none" points="1906,951 1901,945 " />
</g>

<g fill="none" stroke="#ff0000" stroke-opacity="1" stroke-width="4" stroke-linecap="round" stroke-linejoin="bevel" transform="matrix(1,0,0,1,0,0)"
font-family="MS Shell Dlg 2" font-size="52.9167" font-weight="400" font-style="normal" 
>
<polyline fill="none" vector-effect="none" points="1906,951 1911,945 " />
</g>

<g fill="none" stroke="#ff0000" stroke-opacity="1" stroke-width="4" stroke-linecap="round" stroke-linejoin="bevel" transform="matrix(1,0,0,1,0,0)"
font-family="MS Shell Dlg 2" font-size="52.9167" font-weight="400" font-style="normal" 
>
<polyline fill="none" vector-effect="none" points="1906,951 1906,930 " />
</g>

<g fill="#400000" fill-opacity="1" stroke="#ff0000" stroke-opacity="1" stroke-width="4" stroke-linecap="round" stroke-linejoin="bevel" transform="matrix(1,0,0,1,0,0)"
font-family="MS Shell Dlg 2" font-size="52.9167" font-weight="400" font-style="normal" 
>
<path vector-effect="none" fill-rule="evenodd" d="M1976,940 C1976,951.046 1967.05,960 1956,960 C1944.95,960 1936,951.046 1936,940 C1936,928.954 1944.95,920 1956,920 C1967.05,920 1976,928.954 1976,940 "/>
</g>

<g fill="none" stroke="#ff0000" stroke-opacity="1" stroke-width="4" stroke-linecap="round" stroke-linejoin="bevel" transform="matrix(1,0,0,1,0,0)"
font-family="MS Shell Dlg 2" font-size="52.9167" font-weight="400" font-style="normal" 
>
<polyline fill="none" vector-effect="none" points="1956,930 1951,935 " />
</g>

<g fill="none" stroke="#ff0000" stroke-opacity="1" stroke-width="4" stroke-linecap="round" stroke-linejoin="bevel" transform="matrix(1,0,0,1,0,0)"
font-family="MS Shell Dlg 2" font-size="52.9167" font-weight="400" font-style="normal" 
>
<polyline fill="none" vector-effect="none" points="1956,930 1961,935 " />
</g>

<g fill="none" stroke="#ff0000" stroke-opacity="1" stroke-width="4" stroke-linecap="round" stroke-linejoin="bevel" transform="matrix(1,0,0,1,0,0)"
font-family="MS Shell Dlg 2" font-size="52.9167" font-weight="400" font-style="normal" 
>
<polyline fill="none" vector-effect="none" points="1956,930 1956,951 " />
</g>

<g fill="#004000" fill-opacity="1" stroke="#004000" stroke-opacity="1" stroke-width="8" stroke-linecap="round" stroke-linejoin="bevel" transform="matrix(1,0,0,1,0,0)"
font-family="MS Shell Dlg 2" font-size="52.9167" font-weight="400" font-style="normal" 
>
<path vector-effect="none" fill-rule="evenodd" d="M1052,1296 C1052,1301.52 1047.52,1306 1042,1306 C1036.48,1306 1032,1301.52 1032,1296 C1032,1290.48 1036.48,1286 1042,1286 C1047.52,1286 1052,1290.48 1052,1296 "/>
</g>

<g fill="none" stroke="#0000c0" stroke-opacity="1" stroke-width="4" stroke-linecap="round" stroke-linejoin="bevel" transform="matrix(1,0,0,1,0,0)"
font-family="MS Shell Dlg 2" font-size="52.9167" font-weight="400" font-style="normal" 
>
<path vector-effect="none" fill-rule="evenodd" d="M509,763 L458,737 L483,712 L509,763"/>
</g>

<g fill="none" stroke="#0000c0" stroke-opacity="1" stroke-width="4" stroke-linecap="round" stroke-linejoin="bevel" transform="matrix(1,0,0,1,0,0)"
font-family="MS Shell Dlg 2" font-size="52.9167" font-weight="400" font-style="normal" 
>
<polyline fill="none" vector-effect="none" points="534,788 509,763 " />
</g>

<g fill="none" stroke="#0000c0" stroke-opacity="1" stroke-width="4" stroke-linecap="round" stroke-linejoin="bevel" transform="matrix(1,0,0,1,0,0)"
font-family="MS Shell Dlg 2" font-size="52.9167" font-weight="400" font-style="normal" 
>
<path vector-effect="none" fill-rule="evenodd" d="M549,722 L559,722 L559,763 L549,763 L549,722"/>
</g>

<g fill="none" stroke="#0000c0" stroke-opacity="1" stroke-width="4" stroke-linecap="round" stroke-linejoin="bevel" transform="matrix(1,0,0,1,0,0)"
font-family="MS Shell Dlg 2" font-size="52.9167" font-weight="400" font-style="normal" 
>
<polyline fill="none" vector-effect="none" points="559,722 575,707 " />
</g>

<g fill="none" stroke="#0000c0" stroke-opacity="1" stroke-width="4" stroke-linecap="round" stroke-linejoin="bevel" transform="matrix(1,0,0,1,0,0)"
font-family="MS Shell Dlg 2" font-size="52.9167" font-weight="400" font-style="normal" 
>
<polyline fill="none" vector-effect="none" points="575,778 559,763 " />
</g>

<g fill="none" stroke="#0000c0" stroke-opacity="1" stroke-width="4" stroke-linecap="round" stroke-linejoin="bevel" transform="matrix(1,0,0,1,0,0)"
font-family="MS Shell Dlg 2" font-size="52.9167" font-weight="400" font-style="normal" 
>
<polyline fill="none" vector-effect="none" points="575,707 575,778 " />
</g>

<g fill="none" stroke="#0000c0" stroke-opacity="1" stroke-width="1" stroke-linecap="square" stroke-linejoin="bevel" transform="matrix(1,0,0,1,0,0)"
font-family="Arial" font-size="41.656" font-weight="400" font-style="normal" 
>
<text fill="#0000c0" fill-opacity="1" stroke="none" xml:space="preserve" x="310" y="728" font-family="Arial" font-size="41.656" font-weight="400" font-style="normal" 
 >TG113</text>
</g>

<g fill="none" stroke="#0000c0" stroke-opacity="1" stroke-width="4" stroke-linecap="round" stroke-linejoin="bevel" transform="matrix(1,0,0,1,0,0)"
font-family="MS Shell Dlg 2" font-size="52.9167" font-weight="400" font-style="normal" 
>
</g>

<g fill="#c8c8aa" fill-opacity="1" stroke="#800000" stroke-opacity="1" stroke-width="8" stroke-linecap="round" stroke-linejoin="bevel" transform="matrix(1,0,0,1,0,0)"
font-family="MS Shell Dlg 2" font-size="52.9167" font-weight="400" font-style="normal" 
>
<path vector-effect="none" fill-rule="evenodd" d="M4006,1149 C4006,1186.56 3975.56,1217 3938,1217 C3900.44,1217 3870,1186.56 3870,1149 C3870,1111.44 3900.44,1081 3938,1081 C3975.56,1081 4006,1111.44 4006,1149 "/>
</g>

<g fill="none" stroke="#800000" stroke-opacity="1" stroke-width="8" stroke-linecap="round" stroke-linejoin="bevel" transform="matrix(1,0,0,1,0,0)"
font-family="MS Shell Dlg 2" font-size="52.9167" font-weight="400" font-style="normal" 
>
<polyline fill="none" vector-effect="none" points="3866,1078 4009,1078 " />
</g>

<g fill="none" stroke="#800000" stroke-opacity="1" stroke-width="8" stroke-linecap="round" stroke-linejoin="bevel" transform="matrix(1,0,0,1,0,0)"
font-family="MS Shell Dlg 2" font-size="52.9167" font-weight="400" font-style="normal" 
>
<polyline fill="none" vector-effect="none" points="3988,1245 3988,1194 " />
</g>

<g fill="none" stroke="#800000" stroke-opacity="1" stroke-width="8" stroke-linecap="round" stroke-linejoin="bevel" transform="matrix(1,0,0,1,0,0)"
font-family="MS Shell Dlg 2" font-size="52.9167" font-weight="400" font-style="normal" 
>
<polyline fill="none" vector-effect="none" points="3887,1245 3887,1194 " />
</g>

<g fill="none" stroke="#000000" stroke-opacity="1" stroke-width="1" stroke-linecap="square" stroke-linejoin="bevel" transform="matrix(1,0,0,1,0,0)"
font-family="Arial" font-size="62.484" font-weight="400" font-style="normal" 
>
<text fill="#000000" fill-opacity="1" stroke="none" xml:space="preserve" x="3862" y="954" font-family="Arial" font-size="62.484" font-weight="400" font-style="normal" 
 >MIC1</text>
</g>

<g fill="none" stroke="#800000" stroke-opacity="1" stroke-width="8" stroke-linecap="round" stroke-linejoin="bevel" transform="matrix(1,0,0,1,0,0)"
font-family="MS Shell Dlg 2" font-size="52.9167" font-weight="400" font-style="normal" 
>
</g>

<g fill="none" stroke="#000000" stroke-opacity="1" stroke-width="1" stroke-linecap="square" stroke-linejoin="bevel" transform="matrix(1,0,0,1,0,0)"
font-family="Arial" font-size="41.656" font-weight="400" font-style="normal" 
>
<text fill="#000000" fill-opacity="1" stroke="none" xml:space="preserve" x="3862" y="1012" font-family="Arial" font-size="41.656" font-weight="400" font-style="normal" 
 >MICROPHONE</text>
</g>

<g fill="none" stroke="#800000" stroke-opacity="1" stroke-width="8" stroke-linecap="round" stroke-linejoin="bevel" transform="matrix(1,0,0,1,0,0)"
font-family="MS Shell Dlg 2" font-size="52.9167" font-weight="400" font-style="normal" 
>
</g>

<g fill="none" stroke="#004000" stroke-opacity="1" stroke-width="8" stroke-linecap="round" stroke-linejoin="bevel" transform="matrix(1,0,0,1,0,0)"
font-family="MS Shell Dlg 2" font-size="52.9167" font-weight="400" font-style="normal" 
>
<path vector-effect="none" fill-rule="evenodd" d="M2464,971 L2464,1012 L2515,991 L2464,971"/>
</g>

<g fill="none" stroke="#004000" stroke-opacity="1" stroke-width="8" stroke-linecap="round" stroke-linejoin="bevel" transform="matrix(1,0,0,1,0,0)"
font-family="MS Shell Dlg 2" font-size="52.9167" font-weight="400" font-style="normal" 
>
<polyline fill="none" vector-effect="none" points="2464,991 2414,991 " />
</g>

<g fill="none" stroke="#000000" stroke-opacity="1" stroke-width="1" stroke-linecap="square" stroke-linejoin="bevel" transform="matrix(1,0,0,1,0,0)"
font-family="Arial" font-size="41.656" font-weight="400" font-style="normal" 
>
<text fill="#000000" fill-opacity="1" stroke="none" xml:space="preserve" x="2541" y="1007" font-family="Arial" font-size="41.656" font-weight="400" font-style="normal" 
 >DATA</text>
</g>

<g fill="none" stroke="#004000" stroke-opacity="1" stroke-width="8" stroke-linecap="round" stroke-linejoin="bevel" transform="matrix(1,0,0,1,0,0)"
font-family="MS Shell Dlg 2" font-size="52.9167" font-weight="400" font-style="normal" 
>
</g>

<g fill="none" stroke="#004000" stroke-opacity="1" stroke-width="8" stroke-linecap="round" stroke-linejoin="bevel" transform="matrix(1,0,0,1,0,0)"
font-family="MS Shell Dlg 2" font-size="52.9167" font-weight="400" font-style="normal" 
>
<path vector-effect="none" fill-rule="evenodd" d="M2464,1123 L2464,1164 L2515,1144 L2464,1123"/>
</g>

<g fill="none" stroke="#004000" stroke-opacity="1" stroke-width="8" stroke-linecap="round" stroke-linejoin="bevel" transform="matrix(1,0,0,1,0,0)"
font-family="MS Shell Dlg 2" font-size="52.9167" font-weight="400" font-style="normal" 
>
<polyline fill="none" vector-effect="none" points="2464,1144 2414,1144 " />
</g>

<g fill="none" stroke="#000000" stroke-opacity="1" stroke-width="1" stroke-linecap="square" stroke-linejoin="bevel" transform="matrix(1,0,0,1,0,0)"
font-family="Arial" font-size="41.656" font-weight="400" font-style="normal" 
>
<text fill="#000000" fill-opacity="1" stroke="none" xml:space="preserve" x="2541" y="1160" font-family="Arial" font-size="41.656" font-weight="400" font-style="normal" 
 >GROUND</text>
</g>

<g fill="none" stroke="#004000" stroke-opacity="1" stroke-width="8" stroke-linecap="round" stroke-linejoin="bevel" transform="matrix(1,0,0,1,0,0)"
font-family="MS Shell Dlg 2" font-size="52.9167" font-weight="400" font-style="normal" 
>
</g>

<g fill="none" stroke="#004000" stroke-opacity="1" stroke-width="8" stroke-linecap="round" stroke-linejoin="bevel" transform="matrix(1,0,0,1,0,0)"
font-family="MS Shell Dlg 2" font-size="52.9167" font-weight="400" font-style="normal" 
>
<path vector-effect="none" fill-rule="evenodd" d="M2464,818 L2464,859 L2515,839 L2464,818"/>
</g>

<g fill="none" stroke="#004000" stroke-opacity="1" stroke-width="8" stroke-linecap="round" stroke-linejoin="bevel" transform="matrix(1,0,0,1,0,0)"
font-family="MS Shell Dlg 2" font-size="52.9167" font-weight="400" font-style="normal" 
>
<polyline fill="none" vector-effect="none" points="2464,839 2414,839 " />
</g>

<g fill="none" stroke="#000000" stroke-opacity="1" stroke-width="1" stroke-linecap="square" stroke-linejoin="bevel" transform="matrix(1,0,0,1,0,0)"
font-family="Arial" font-size="41.656" font-weight="400" font-style="normal" 
>
<text fill="#000000" fill-opacity="1" stroke="none" xml:space="preserve" x="2541" y="855" font-family="Arial" font-size="41.656" font-weight="400" font-style="normal" 
 >POWER</text>
</g>

<g fill="none" stroke="#004000" stroke-opacity="1" stroke-width="8" stroke-linecap="round" stroke-linejoin="bevel" transform="matrix(1,0,0,1,0,0)"
font-family="MS Shell Dlg 2" font-size="52.9167" font-weight="400" font-style="normal" 
>
</g>

<g fill="#004000" fill-opacity="1" stroke="#004000" stroke-opacity="1" stroke-width="8" stroke-linecap="round" stroke-linejoin="bevel" transform="matrix(1,0,0,1,0,0)"
font-family="MS Shell Dlg 2" font-size="52.9167" font-weight="400" font-style="normal" 
>
<path vector-effect="none" fill-rule="evenodd" d="M1763,2312 C1763,2317.52 1758.52,2322 1753,2322 C1747.48,2322 1743,2317.52 1743,2312 C1743,2306.48 1747.48,2302 1753,2302 C1758.52,2302 1763,2306.48 1763,2312 "/>
</g>

<g fill="#004000" fill-opacity="1" stroke="#004000" stroke-opacity="1" stroke-width="8" stroke-linecap="round" stroke-linejoin="bevel" transform="matrix(1,0,0,1,0,0)"
font-family="MS Shell Dlg 2" font-size="52.9167" font-weight="400" font-style="normal" 
>
<path vector-effect="none" fill-rule="evenodd" d="M1052,991 C1052,996.523 1047.52,1001 1042,1001 C1036.48,1001 1032,996.523 1032,991 C1032,985.477 1036.48,981 1042,981 C1047.52,981 1052,985.477 1052,991 "/>
</g>

<g fill="none" stroke="#004000" stroke-opacity="1" stroke-width="8" stroke-linecap="round" stroke-linejoin="bevel" transform="matrix(1,0,0,1,0,0)"
font-family="MS Shell Dlg 2" font-size="52.9167" font-weight="400" font-style="normal" 
>
<path vector-effect="none" fill-rule="evenodd" d="M3907,2109 L3866,2109 L3887,2160 L3907,2109"/>
</g>

<g fill="none" stroke="#004000" stroke-opacity="1" stroke-width="8" stroke-linecap="round" stroke-linejoin="bevel" transform="matrix(1,0,0,1,0,0)"
font-family="MS Shell Dlg 2" font-size="52.9167" font-weight="400" font-style="normal" 
>
<polyline fill="none" vector-effect="none" points="3887,2109 3887,2058 " />
</g>

<g fill="none" stroke="#004000" stroke-opacity="1" stroke-width="8" stroke-linecap="round" stroke-linejoin="bevel" transform="matrix(1,0,0,1,0,0)"
font-family="MS Shell Dlg 2" font-size="52.9167" font-weight="400" font-style="normal" 
>
<path vector-effect="none" fill-rule="evenodd" d="M4009,2109 L3968,2109 L3988,2160 L4009,2109"/>
</g>

<g fill="none" stroke="#004000" stroke-opacity="1" stroke-width="8" stroke-linecap="round" stroke-linejoin="bevel" transform="matrix(1,0,0,1,0,0)"
font-family="MS Shell Dlg 2" font-size="52.9167" font-weight="400" font-style="normal" 
>
<polyline fill="none" vector-effect="none" points="3988,2109 3988,2058 " />
</g>
</g>
</svg>
